<svg width="20" height="20" viewBox="0 0 11 10" fill="none" xmlns="http://www.w3.org/2000/svg">
<path fill-rule="evenodd" clip-rule="evenodd" d="M10.6394 10H8.64082V6.50049C8.64082 5.54049 8.21762 5.00488 7.45866 5.00488C6.63274 5.00488 6.14259 5.56299 6.14259 6.50049V10H4.14401V3.5H6.14259V4.23096C6.14259 4.23096 6.76964 3.12988 8.18264 3.12988C9.59614 3.12988 10.6394 3.99305 10.6394 5.77905V10ZM1.86662 2.46045C1.1926 2.46045 0.646484 1.90948 0.646484 1.22998C0.646484 0.55098 1.1926 0 1.86662 0C2.54014 0 3.08625 0.55098 3.08625 1.22998C3.08675 1.90948 2.54014 2.46045 1.86662 2.46045ZM0.646484 10H3.14471V3.5H0.646484V10Z" fill="#040a1b"/>
</svg>
